<svg xmlns="http://www.w3.org/2000/svg" xmlns:xlink="http://www.w3.org/1999/xlink" version="1.1" width="1080" height="1080" viewBox="0 0 1080 1080" xml:space="preserve">


<rect x="0" y="0" width="100%" height="100%" fill="transparent"/>
<g transform="matrix(1 0 0 1 540 540)" id="21a42d9b-5c0c-40c9-af2c-a4589443d805">
<rect style="stroke: none; stroke-width: 1; stroke-dasharray: none; stroke-linecap: butt; stroke-dashoffset: 0; stroke-linejoin: miter; stroke-miterlimit: 4; fill: rgb(255,255,255); fill-rule: nonzero; opacity: 1; visibility: hidden;" vector-effect="non-scaling-stroke" x="-540" y="-540" rx="0" ry="0" width="1080" height="1080"/>
</g>
<g transform="matrix(Infinity NaN NaN Infinity 0 0)" id="1408c960-9552-49c2-9021-ce4fe9d615ef">
</g>
<g transform="matrix(10.59 0 0 10.59 1245.87 1208.45)">
<g style="">
		<g transform="matrix(10.04 0 0 10.04 1615.54 2602.23)">
<path style="stroke: rgb(0,0,0); stroke-width: 1; stroke-dasharray: none; stroke-linecap: butt; stroke-dashoffset: 0; stroke-linejoin: miter; stroke-miterlimit: 4; fill: rgb(31,142,241); fill-rule: nonzero; opacity: 1;" vector-effect="non-scaling-stroke" transform=" translate(-511.92, -512.21)" d="M 327 704 C 339.64 704.4 353.02 697.75 365.32 694.32 C 377.62 690.9000000000001 386.93 683.21 398.31 678.3100000000001 C 409.68 673.4000000000001 415.76 658.36 428.93 661.07 C 442.09000000000003 663.7900000000001 457.6 665.8900000000001 471.98 667.0200000000001 C 486.35 668.1600000000001 503.92 669.3500000000001 519 669.0000000000001 C 534.0799999999999 668.6500000000001 551.7 667.7000000000002 566 666.0000000000001 C 580.3 664.3000000000001 593.9 661.3100000000001 606.99 657.9900000000001 C 620.08 654.6700000000002 631.77 651.0500000000001 643.3100000000001 645.3100000000002 C 654.84 639.5600000000002 664.35 634.3300000000002 673.7500000000001 625.7500000000002 C 683.1600000000001 617.1800000000002 689.7100000000002 610.2000000000003 696.7000000000002 599.7000000000003 C 703.6800000000002 589.1900000000003 707.8600000000001 578.6300000000002 712.0700000000002 566.0700000000003 C 716.2900000000002 553.5200000000003 718.7200000000001 538.0100000000003 720.0000000000001 524.0000000000002 C 721.2800000000001 509.9900000000001 721.3000000000001 490.8200000000002 720.3300000000002 476.67000000000024 C 719.3600000000002 462.52000000000027 717.4400000000002 446.8900000000002 713.9800000000001 434.02000000000027 C 710.5200000000001 421.16000000000025 706.8000000000002 408.6900000000003 700.2500000000001 397.7500000000003 C 693.7100000000002 386.8000000000003 688.1600000000001 378.6100000000003 679.2300000000001 369.77000000000027 C 670.3000000000002 360.93000000000023 661.9000000000001 355.4400000000003 651.0800000000002 348.92000000000024 C 640.2500000000001 342.41000000000025 628.6200000000001 338.28000000000026 616.0700000000002 333.93000000000023 C 603.5300000000002 329.5700000000002 589.8900000000002 327.3800000000002 576.0200000000002 324.98000000000025 C 562.1600000000002 322.5700000000002 544.7900000000002 321.41000000000025 530.0000000000002 321.0000000000002 C 515.2100000000003 320.5900000000002 497.7100000000002 319.87000000000023 483.0100000000002 321.0100000000002 C 468.30000000000024 322.1400000000002 452.9000000000002 324.0300000000002 439.0700000000002 326.0700000000002 C 425.24000000000024 328.11000000000024 412.0300000000002 332.31000000000023 399.68000000000023 336.68000000000023 C 387.33000000000027 341.05000000000024 377.22000000000025 345.9400000000002 366.7000000000002 352.7000000000002 C 356.18000000000023 359.4500000000002 348.31000000000023 365.3800000000002 339.9200000000002 374.9200000000002 C 331.5200000000002 384.45000000000016 325.70000000000016 393.5900000000002 320.3100000000002 405.3100000000002 C 314.9200000000002 417.02000000000015 310.50000000000017 428.59000000000015 307.9900000000002 441.9900000000002 C 305.4900000000002 455.39000000000016 303.6600000000002 471.5500000000002 303.00000000000017 486.00000000000017 C 302.34000000000015 500.45000000000016 303.7400000000002 519.9800000000001 305.07000000000016 533.9300000000002 C 306.40000000000015 547.8700000000002 311.14000000000016 560.6400000000002 314.69000000000017 573.3100000000002 C 318.25000000000017 585.9800000000001 326.2900000000002 594.0600000000002 331.75000000000017 605.2500000000002 C 337.2200000000002 616.4400000000003 352.6700000000002 620.8100000000002 354.00000000000017 633.0000000000002 C 355.33000000000015 645.1900000000003 348.19000000000017 661.0600000000002 344.3100000000002 672.3100000000002 C 340.4200000000002 683.5600000000002 332.2200000000002 693.4900000000001 327.00000000000017 704.0000000000002 M 531.0000000000002 384.0000000000002 C 571.2600000000002 387.9000000000002 622.1100000000002 399.4000000000002 642.7700000000002 440.23000000000025 C 663.4300000000002 481.0600000000003 661.3300000000002 536.5800000000003 628.7500000000002 570.7500000000002 C 596.18 604.92 538.67 607.24 495 606 C 451.33000000000004 604.76 402.17 590.68 380.7 550.3 C 359.21999999999997 509.92999999999995 363.46999999999997 453.09 396.25 420.24999999999994 C 429.03000000000003 387.4099999999999 485.23 379.57 531 384 Z" stroke-linecap="round"/>
</g>
		<g transform="matrix(10.04 0 0 10.04 1615.95 2558.47)">
<path style="stroke: rgb(0,0,0); stroke-width: 1; stroke-dasharray: none; stroke-linecap: butt; stroke-dashoffset: 0; stroke-linejoin: miter; stroke-miterlimit: 4; fill: rgb(44,62,80); fill-rule: nonzero; opacity: 1;" vector-effect="non-scaling-stroke" transform=" translate(-511.96, -507.85)" d="M 451 447 C 419.79 439.27 411.65 494.65 440.98 501.02 C 470.31 507.4 479.05 453.95 451 447 Z M 584 447 C 554.55 440.9 543.46 492.97 573 501 C 602.54 509.03 612.93 452.99 584 447 Z M 551 529 C 538.95 526.2 525.46 530.09 513 529 C 500.53999999999996 527.91 488.91 528.97 476.02 529.02 C 463.14 529.0799999999999 468.35999999999996 543.67 474.22999999999996 550.77 C 480.09999999999997 557.87 486.34999999999997 562.73 495.31999999999994 566.68 C 504.2899999999999 570.6299999999999 518.06 569.9699999999999 526.9799999999999 566.9799999999999 C 535.8999999999999 563.9799999999999 543.5099999999999 558.1899999999999 548.7499999999999 551.7499999999999 C 553.9899999999999 545.3099999999998 562.18 531.6 551 529 Z" stroke-linecap="round"/>
</g>
</g>
</g>
<g transform="matrix(10.59 0 0 10.59 826.84 1011.41)">
<g style="">
		<g transform="matrix(10.04 0 0 10.04 1615.54 2602.23)">
<path style="stroke: rgb(0,0,0); stroke-width: 1; stroke-dasharray: none; stroke-linecap: butt; stroke-dashoffset: 0; stroke-linejoin: miter; stroke-miterlimit: 4; fill: rgb(31,142,241); fill-rule: nonzero; opacity: 1;" vector-effect="non-scaling-stroke" transform=" translate(-511.92, -512.21)" d="M 327 704 C 339.64 704.4 353.02 697.75 365.32 694.32 C 377.62 690.9000000000001 386.93 683.21 398.31 678.3100000000001 C 409.68 673.4000000000001 415.76 658.36 428.93 661.07 C 442.09000000000003 663.7900000000001 457.6 665.8900000000001 471.98 667.0200000000001 C 486.35 668.1600000000001 503.92 669.3500000000001 519 669.0000000000001 C 534.0799999999999 668.6500000000001 551.7 667.7000000000002 566 666.0000000000001 C 580.3 664.3000000000001 593.9 661.3100000000001 606.99 657.9900000000001 C 620.08 654.6700000000002 631.77 651.0500000000001 643.3100000000001 645.3100000000002 C 654.84 639.5600000000002 664.35 634.3300000000002 673.7500000000001 625.7500000000002 C 683.1600000000001 617.1800000000002 689.7100000000002 610.2000000000003 696.7000000000002 599.7000000000003 C 703.6800000000002 589.1900000000003 707.8600000000001 578.6300000000002 712.0700000000002 566.0700000000003 C 716.2900000000002 553.5200000000003 718.7200000000001 538.0100000000003 720.0000000000001 524.0000000000002 C 721.2800000000001 509.9900000000001 721.3000000000001 490.8200000000002 720.3300000000002 476.67000000000024 C 719.3600000000002 462.52000000000027 717.4400000000002 446.8900000000002 713.9800000000001 434.02000000000027 C 710.5200000000001 421.16000000000025 706.8000000000002 408.6900000000003 700.2500000000001 397.7500000000003 C 693.7100000000002 386.8000000000003 688.1600000000001 378.6100000000003 679.2300000000001 369.77000000000027 C 670.3000000000002 360.93000000000023 661.9000000000001 355.4400000000003 651.0800000000002 348.92000000000024 C 640.2500000000001 342.41000000000025 628.6200000000001 338.28000000000026 616.0700000000002 333.93000000000023 C 603.5300000000002 329.5700000000002 589.8900000000002 327.3800000000002 576.0200000000002 324.98000000000025 C 562.1600000000002 322.5700000000002 544.7900000000002 321.41000000000025 530.0000000000002 321.0000000000002 C 515.2100000000003 320.5900000000002 497.7100000000002 319.87000000000023 483.0100000000002 321.0100000000002 C 468.30000000000024 322.1400000000002 452.9000000000002 324.0300000000002 439.0700000000002 326.0700000000002 C 425.24000000000024 328.11000000000024 412.0300000000002 332.31000000000023 399.68000000000023 336.68000000000023 C 387.33000000000027 341.05000000000024 377.22000000000025 345.9400000000002 366.7000000000002 352.7000000000002 C 356.18000000000023 359.4500000000002 348.31000000000023 365.3800000000002 339.9200000000002 374.9200000000002 C 331.5200000000002 384.45000000000016 325.70000000000016 393.5900000000002 320.3100000000002 405.3100000000002 C 314.9200000000002 417.02000000000015 310.50000000000017 428.59000000000015 307.9900000000002 441.9900000000002 C 305.4900000000002 455.39000000000016 303.6600000000002 471.5500000000002 303.00000000000017 486.00000000000017 C 302.34000000000015 500.45000000000016 303.7400000000002 519.9800000000001 305.07000000000016 533.9300000000002 C 306.40000000000015 547.8700000000002 311.14000000000016 560.6400000000002 314.69000000000017 573.3100000000002 C 318.25000000000017 585.9800000000001 326.2900000000002 594.0600000000002 331.75000000000017 605.2500000000002 C 337.2200000000002 616.4400000000003 352.6700000000002 620.8100000000002 354.00000000000017 633.0000000000002 C 355.33000000000015 645.1900000000003 348.19000000000017 661.0600000000002 344.3100000000002 672.3100000000002 C 340.4200000000002 683.5600000000002 332.2200000000002 693.4900000000001 327.00000000000017 704.0000000000002 M 531.0000000000002 384.0000000000002 C 571.2600000000002 387.9000000000002 622.1100000000002 399.4000000000002 642.7700000000002 440.23000000000025 C 663.4300000000002 481.0600000000003 661.3300000000002 536.5800000000003 628.7500000000002 570.7500000000002 C 596.18 604.92 538.67 607.24 495 606 C 451.33000000000004 604.76 402.17 590.68 380.7 550.3 C 359.21999999999997 509.92999999999995 363.46999999999997 453.09 396.25 420.24999999999994 C 429.03000000000003 387.4099999999999 485.23 379.57 531 384 Z" stroke-linecap="round"/>
</g>
		<g transform="matrix(10.04 0 0 10.04 1615.95 2558.47)">
<path style="stroke: rgb(0,0,0); stroke-width: 1; stroke-dasharray: none; stroke-linecap: butt; stroke-dashoffset: 0; stroke-linejoin: miter; stroke-miterlimit: 4; fill: rgb(44,62,80); fill-rule: nonzero; opacity: 1;" vector-effect="non-scaling-stroke" transform=" translate(-511.96, -507.85)" d="M 451 447 C 419.79 439.27 411.65 494.65 440.98 501.02 C 470.31 507.4 479.05 453.95 451 447 Z M 584 447 C 554.55 440.9 543.46 492.97 573 501 C 602.54 509.03 612.93 452.99 584 447 Z M 551 529 C 538.95 526.2 525.46 530.09 513 529 C 500.53999999999996 527.91 488.91 528.97 476.02 529.02 C 463.14 529.0799999999999 468.35999999999996 543.67 474.22999999999996 550.77 C 480.09999999999997 557.87 486.34999999999997 562.73 495.31999999999994 566.68 C 504.2899999999999 570.6299999999999 518.06 569.9699999999999 526.9799999999999 566.9799999999999 C 535.8999999999999 563.9799999999999 543.5099999999999 558.1899999999999 548.7499999999999 551.7499999999999 C 553.9899999999999 545.3099999999998 562.18 531.6 551 529 Z" stroke-linecap="round"/>
</g>
</g>
</g>
<g transform="matrix(2.3 0 0 2.35 540 540)">
<g style="" vector-effect="non-scaling-stroke">
		<g transform="matrix(1 0 0 1 0 0)">
<path style="stroke: none; stroke-width: 1; stroke-dasharray: none; stroke-linecap: butt; stroke-dashoffset: 0; stroke-linejoin: miter; stroke-miterlimit: 4; fill: rgb(31,142,241); fill-rule: nonzero; opacity: 1;" vector-effect="non-scaling-stroke" transform=" translate(-511.92, -512.21)" d="M 327 704 C 339.64 704.4 353.02 697.75 365.32 694.32 C 377.62 690.9 386.93 683.21 398.31 678.31 C 409.68 673.4 415.76 658.36 428.93 661.07 C 442.09 663.79 457.6 665.89 471.98 667.02 C 486.35 668.16 503.92 669.35 519 669 C 534.08 668.65 551.7 667.7 566 666 C 580.3 664.3 593.9 661.31 606.99 657.99 C 620.08 654.67 631.77 651.05 643.31 645.31 C 654.84 639.56 664.35 634.33 673.75 625.75 C 683.16 617.18 689.71 610.2 696.7 599.7 C 703.68 589.19 707.86 578.63 712.07 566.07 C 716.29 553.52 718.72 538.01 720 524 C 721.28 509.99 721.3 490.82 720.33 476.67 C 719.36 462.52 717.44 446.89 713.98 434.02 C 710.52 421.16 706.8 408.69 700.25 397.75 C 693.71 386.8 688.16 378.61 679.23 369.77 C 670.3 360.93 661.9 355.44 651.08 348.92 C 640.25 342.41 628.62 338.28 616.07 333.93 C 603.53 329.57 589.89 327.38 576.02 324.98 C 562.16 322.57 544.79 321.41 530 321 C 515.21 320.59 497.71 319.87 483.01 321.01 C 468.3 322.14 452.9 324.03 439.07 326.07 C 425.24 328.11 412.03 332.31 399.68 336.68 C 387.33 341.05 377.22 345.94 366.7 352.7 C 356.18 359.45 348.31 365.38 339.92 374.92 C 331.52 384.45 325.7 393.59 320.31 405.31 C 314.92 417.02 310.5 428.59 307.99 441.99 C 305.49 455.39 303.66 471.55 303 486 C 302.34 500.45 303.74 519.98 305.07 533.93 C 306.4 547.87 311.14 560.64 314.69 573.31 C 318.25 585.98 326.29 594.06 331.75 605.25 C 337.22 616.44 352.67 620.81 354 633 C 355.33 645.19 348.19 661.06 344.31 672.31 C 340.42 683.56 332.22 693.49 327 704 M 531 384 C 571.26 387.9 622.11 399.4 642.77 440.23 C 663.43 481.06 661.33 536.58 628.75 570.75 C 596.18 604.92 538.67 607.24 495 606 C 451.33 604.76 402.17 590.68 380.7 550.3 C 359.22 509.93 363.47 453.09 396.25 420.25 C 429.03 387.41 485.23 379.57 531 384 Z" stroke-linecap="round"/>
</g>
		<g transform="matrix(1 0 0 1 -66.49 -38.3)">
<path style="stroke:none; stroke-width: 1; stroke-dasharray: none; stroke-linecap: butt; stroke-dashoffset: 0; stroke-linejoin: miter; stroke-miterlimit: 4; fill: rgb(125, 222, 22); fill-rule: nonzero; opacity: 1;" vector-effect="non-scaling-stroke" transform=" translate(-445.43, -473.9)" d="M 451 447 C 419.79 439.27 411.65 494.65 440.98 501.02 C 470.31 507.4 479.05 453.95 451 447 Z" stroke-linecap="round"/>
</g>
		<g transform="matrix(1 0 0 1 66.46 -38.06)">
<path style="stroke:none; stroke-width: 1; stroke-dasharray: none; stroke-linecap: butt; stroke-dashoffset: 0; stroke-linejoin: miter; stroke-miterlimit: 4; fill: rgb(125, 222, 22); fill-rule: nonzero; opacity: 1;" vector-effect="non-scaling-stroke" transform=" translate(-578.38, -474.14)" d="M 584 447 C 554.55 440.9 543.46 492.97 573 501 C 602.54 509.03 612.93 452.99 584 447 Z" stroke-linecap="round"/>
</g>
		<g transform="matrix(1 0 0 1 0.39 36.49)">
<path style="strok:none; stroke-width: 1; stroke-dasharray: none; stroke-linecap: butt; stroke-dashoffset: 0; stroke-linejoin: miter; stroke-miterlimit: 4; fill: rgb(125, 222, 22); fill-rule: nonzero; opacity: 1;" vector-effect="non-scaling-stroke" transform=" translate(-512.31, -548.7)" d="M 551 529 C 538.95 526.2 525.46 530.09 513 529 C 500.54 527.91 488.91 528.97 476.02 529.02 C 463.14 529.08 468.36 543.67 474.23 550.77 C 480.1 557.87 486.35 562.73 495.32 566.68 C 504.29 570.63 518.06 569.97 526.98 566.98 C 535.9 563.98 543.51 558.19 548.75 551.75 C 553.99 545.31 562.18 531.6 551 529 Z" stroke-linecap="round"/>
</g>
</g>
</g>
</svg>